<mxfile host="app.diagrams.net" agent="Mozilla/5.0 (Windows NT 10.0; Win64; x64) AppleWebKit/537.36 (KHTML, like Gecko) Chrome/139.0.0.0 Safari/537.36" version="28.0.7">
  <diagram name="Page-1" id="d9HqZ03SX1EYeeWls_Qq">
    <mxGraphModel dx="1783" dy="929" grid="1" gridSize="10" guides="1" tooltips="1" connect="1" arrows="1" fold="1" page="1" pageScale="1" pageWidth="827" pageHeight="1169" math="0" shadow="0">
      <root>
        <mxCell id="0" />
        <mxCell id="1" parent="0" />
        <mxCell id="qqcUrbFprioC642Xm6ZQ-74" value="dim_championships&lt;div&gt;&lt;br&gt;&lt;/div&gt;" style="swimlane;fontStyle=0;childLayout=stackLayout;horizontal=1;startSize=30;horizontalStack=0;resizeParent=1;resizeParentMax=0;resizeLast=0;collapsible=1;marginBottom=0;whiteSpace=wrap;html=1;" vertex="1" parent="1">
          <mxGeometry x="30" y="20" width="178.06" height="310" as="geometry" />
        </mxCell>
        <mxCell id="qqcUrbFprioC642Xm6ZQ-75" value="&lt;div style=&quot;text-align: right;&quot;&gt;&lt;font face=&quot;Segoe WPC, Segoe UI, sans-serif&quot;&gt;&lt;span style=&quot;font-size: 14px;&quot;&gt;&lt;span style=&quot;background-color: transparent;&quot;&gt;competition_id&lt;/span&gt;&lt;span style=&quot;background-color: transparent; white-space: pre;&quot;&gt;&#x9;&lt;/span&gt;&lt;/span&gt;&lt;/font&gt;&lt;/div&gt;" style="text;strokeColor=none;fillColor=none;align=left;verticalAlign=middle;spacingLeft=4;spacingRight=4;overflow=hidden;points=[[0,0.5],[1,0.5]];portConstraint=eastwest;rotatable=0;whiteSpace=wrap;html=1;" vertex="1" parent="qqcUrbFprioC642Xm6ZQ-74">
          <mxGeometry y="30" width="178.06" height="30" as="geometry" />
        </mxCell>
        <mxCell id="qqcUrbFprioC642Xm6ZQ-76" value="&lt;span style=&quot;font-family: &amp;quot;Segoe WPC&amp;quot;, &amp;quot;Segoe UI&amp;quot;, sans-serif; font-size: 14px; text-align: right; background-color: transparent;&quot;&gt;organizer&lt;/span&gt;&lt;span style=&quot;font-family: &amp;quot;Segoe WPC&amp;quot;, &amp;quot;Segoe UI&amp;quot;, sans-serif; font-size: 14px; text-align: right; background-color: transparent; white-space: pre;&quot;&gt;&#x9;&lt;/span&gt;" style="text;strokeColor=none;fillColor=none;align=left;verticalAlign=middle;spacingLeft=4;spacingRight=4;overflow=hidden;points=[[0,0.5],[1,0.5]];portConstraint=eastwest;rotatable=0;whiteSpace=wrap;html=1;" vertex="1" parent="qqcUrbFprioC642Xm6ZQ-74">
          <mxGeometry y="60" width="178.06" height="30" as="geometry" />
        </mxCell>
        <mxCell id="qqcUrbFprioC642Xm6ZQ-77" value="&lt;span style=&quot;background-color: transparent; font-family: &amp;quot;Segoe WPC&amp;quot;, &amp;quot;Segoe UI&amp;quot;, sans-serif; font-size: 14px; text-align: right;&quot;&gt;competition_type&lt;/span&gt;&lt;span style=&quot;background-color: transparent; font-family: &amp;quot;Segoe WPC&amp;quot;, &amp;quot;Segoe UI&amp;quot;, sans-serif; font-size: 14px; text-align: right; white-space: pre;&quot;&gt;&#x9;&lt;/span&gt;" style="text;strokeColor=none;fillColor=none;align=left;verticalAlign=middle;spacingLeft=4;spacingRight=4;overflow=hidden;points=[[0,0.5],[1,0.5]];portConstraint=eastwest;rotatable=0;whiteSpace=wrap;html=1;" vertex="1" parent="qqcUrbFprioC642Xm6ZQ-74">
          <mxGeometry y="90" width="178.06" height="40" as="geometry" />
        </mxCell>
        <mxCell id="qqcUrbFprioC642Xm6ZQ-82" value="&lt;div style=&quot;text-align: right;&quot;&gt;&lt;span style=&quot;background-color: transparent; color: light-dark(rgb(0, 0, 0), rgb(255, 255, 255)); font-size: 14px;&quot;&gt;&lt;font face=&quot;Segoe WPC, Segoe UI, sans-serif&quot;&gt;region&lt;/font&gt;&lt;/span&gt;&lt;/div&gt;" style="text;strokeColor=none;fillColor=none;align=left;verticalAlign=middle;spacingLeft=4;spacingRight=4;overflow=hidden;points=[[0,0.5],[1,0.5]];portConstraint=eastwest;rotatable=0;whiteSpace=wrap;html=1;" vertex="1" parent="qqcUrbFprioC642Xm6ZQ-74">
          <mxGeometry y="130" width="178.06" height="30" as="geometry" />
        </mxCell>
        <mxCell id="qqcUrbFprioC642Xm6ZQ-83" value="&lt;div style=&quot;text-align: right;&quot;&gt;&lt;span style=&quot;background-color: transparent; color: light-dark(rgb(0, 0, 0), rgb(255, 255, 255)); font-size: 14px;&quot;&gt;&lt;font face=&quot;Segoe WPC, Segoe UI, sans-serif&quot;&gt;sub_region&lt;/font&gt;&lt;/span&gt;&lt;/div&gt;" style="text;strokeColor=none;fillColor=none;align=left;verticalAlign=middle;spacingLeft=4;spacingRight=4;overflow=hidden;points=[[0,0.5],[1,0.5]];portConstraint=eastwest;rotatable=0;whiteSpace=wrap;html=1;" vertex="1" parent="qqcUrbFprioC642Xm6ZQ-74">
          <mxGeometry y="160" width="178.06" height="30" as="geometry" />
        </mxCell>
        <mxCell id="qqcUrbFprioC642Xm6ZQ-84" value="&lt;div style=&quot;text-align: right;&quot;&gt;&lt;span style=&quot;background-color: transparent; color: light-dark(rgb(0, 0, 0), rgb(255, 255, 255)); font-size: 14px;&quot;&gt;&lt;font face=&quot;Segoe WPC, Segoe UI, sans-serif&quot;&gt;season&lt;/font&gt;&lt;/span&gt;&lt;/div&gt;" style="text;strokeColor=none;fillColor=none;align=left;verticalAlign=middle;spacingLeft=4;spacingRight=4;overflow=hidden;points=[[0,0.5],[1,0.5]];portConstraint=eastwest;rotatable=0;whiteSpace=wrap;html=1;" vertex="1" parent="qqcUrbFprioC642Xm6ZQ-74">
          <mxGeometry y="190" width="178.06" height="30" as="geometry" />
        </mxCell>
        <mxCell id="qqcUrbFprioC642Xm6ZQ-85" value="&lt;div style=&quot;text-align: right;&quot;&gt;&lt;span style=&quot;background-color: transparent; color: light-dark(rgb(0, 0, 0), rgb(255, 255, 255)); font-size: 14px;&quot;&gt;&lt;font face=&quot;Segoe WPC, Segoe UI, sans-serif&quot;&gt;divison&lt;/font&gt;&lt;/span&gt;&lt;/div&gt;" style="text;strokeColor=none;fillColor=none;align=left;verticalAlign=middle;spacingLeft=4;spacingRight=4;overflow=hidden;points=[[0,0.5],[1,0.5]];portConstraint=eastwest;rotatable=0;whiteSpace=wrap;html=1;" vertex="1" parent="qqcUrbFprioC642Xm6ZQ-74">
          <mxGeometry y="220" width="178.06" height="30" as="geometry" />
        </mxCell>
        <mxCell id="qqcUrbFprioC642Xm6ZQ-86" value="&lt;div style=&quot;text-align: right;&quot;&gt;&lt;span style=&quot;background-color: transparent; color: light-dark(rgb(0, 0, 0), rgb(255, 255, 255)); font-size: 14px;&quot;&gt;&lt;font face=&quot;Segoe WPC, Segoe UI, sans-serif&quot;&gt;state&lt;/font&gt;&lt;/span&gt;&lt;/div&gt;" style="text;strokeColor=none;fillColor=none;align=left;verticalAlign=middle;spacingLeft=4;spacingRight=4;overflow=hidden;points=[[0,0.5],[1,0.5]];portConstraint=eastwest;rotatable=0;whiteSpace=wrap;html=1;" vertex="1" parent="qqcUrbFprioC642Xm6ZQ-74">
          <mxGeometry y="250" width="178.06" height="30" as="geometry" />
        </mxCell>
        <mxCell id="qqcUrbFprioC642Xm6ZQ-87" value="&lt;div style=&quot;text-align: right;&quot;&gt;&lt;span style=&quot;background-color: transparent; color: light-dark(rgb(0, 0, 0), rgb(255, 255, 255)); font-size: 14px;&quot;&gt;&lt;font face=&quot;Segoe WPC, Segoe UI, sans-serif&quot;&gt;started_at&lt;/font&gt;&lt;/span&gt;&lt;/div&gt;" style="text;strokeColor=none;fillColor=none;align=left;verticalAlign=middle;spacingLeft=4;spacingRight=4;overflow=hidden;points=[[0,0.5],[1,0.5]];portConstraint=eastwest;rotatable=0;whiteSpace=wrap;html=1;" vertex="1" parent="qqcUrbFprioC642Xm6ZQ-74">
          <mxGeometry y="280" width="178.06" height="30" as="geometry" />
        </mxCell>
        <mxCell id="qqcUrbFprioC642Xm6ZQ-88" value="&lt;div&gt;dim_teams&lt;/div&gt;" style="swimlane;fontStyle=0;childLayout=stackLayout;horizontal=1;startSize=30;horizontalStack=0;resizeParent=1;resizeParentMax=0;resizeLast=0;collapsible=1;marginBottom=0;whiteSpace=wrap;html=1;" vertex="1" parent="1">
          <mxGeometry x="240" y="20" width="178.06" height="130" as="geometry" />
        </mxCell>
        <mxCell id="qqcUrbFprioC642Xm6ZQ-89" value="&lt;div style=&quot;text-align: right;&quot;&gt;&lt;font face=&quot;Segoe WPC, Segoe UI, sans-serif&quot;&gt;&lt;span style=&quot;font-size: 14px;&quot;&gt;team_id&lt;/span&gt;&lt;/font&gt;&lt;/div&gt;" style="text;strokeColor=none;fillColor=none;align=left;verticalAlign=middle;spacingLeft=4;spacingRight=4;overflow=hidden;points=[[0,0.5],[1,0.5]];portConstraint=eastwest;rotatable=0;whiteSpace=wrap;html=1;" vertex="1" parent="qqcUrbFprioC642Xm6ZQ-88">
          <mxGeometry y="30" width="178.06" height="30" as="geometry" />
        </mxCell>
        <mxCell id="qqcUrbFprioC642Xm6ZQ-90" value="&lt;div style=&quot;text-align: right;&quot;&gt;&lt;span style=&quot;background-color: transparent; color: light-dark(rgb(0, 0, 0), rgb(255, 255, 255)); font-size: 14px;&quot;&gt;&lt;font face=&quot;Segoe WPC, Segoe UI, sans-serif&quot;&gt;team_name&lt;/font&gt;&lt;/span&gt;&lt;/div&gt;" style="text;strokeColor=none;fillColor=none;align=left;verticalAlign=middle;spacingLeft=4;spacingRight=4;overflow=hidden;points=[[0,0.5],[1,0.5]];portConstraint=eastwest;rotatable=0;whiteSpace=wrap;html=1;" vertex="1" parent="qqcUrbFprioC642Xm6ZQ-88">
          <mxGeometry y="60" width="178.06" height="30" as="geometry" />
        </mxCell>
        <mxCell id="qqcUrbFprioC642Xm6ZQ-91" value="&lt;div style=&quot;text-align: right;&quot;&gt;&lt;span style=&quot;background-color: transparent; color: light-dark(rgb(0, 0, 0), rgb(255, 255, 255)); font-size: 14px;&quot;&gt;&lt;font face=&quot;Segoe WPC, Segoe UI, sans-serif&quot;&gt;team_avatar&lt;/font&gt;&lt;/span&gt;&lt;/div&gt;" style="text;strokeColor=none;fillColor=none;align=left;verticalAlign=middle;spacingLeft=4;spacingRight=4;overflow=hidden;points=[[0,0.5],[1,0.5]];portConstraint=eastwest;rotatable=0;whiteSpace=wrap;html=1;" vertex="1" parent="qqcUrbFprioC642Xm6ZQ-88">
          <mxGeometry y="90" width="178.06" height="40" as="geometry" />
        </mxCell>
        <mxCell id="qqcUrbFprioC642Xm6ZQ-98" value="&lt;div&gt;dim_players&lt;/div&gt;" style="swimlane;fontStyle=0;childLayout=stackLayout;horizontal=1;startSize=30;horizontalStack=0;resizeParent=1;resizeParentMax=0;resizeLast=0;collapsible=1;marginBottom=0;whiteSpace=wrap;html=1;" vertex="1" parent="1">
          <mxGeometry x="240" y="170" width="178.06" height="190" as="geometry" />
        </mxCell>
        <mxCell id="qqcUrbFprioC642Xm6ZQ-100" value="&lt;div style=&quot;text-align: right;&quot;&gt;&lt;span style=&quot;background-color: transparent; color: light-dark(rgb(0, 0, 0), rgb(255, 255, 255)); font-size: 14px;&quot;&gt;&lt;font face=&quot;Segoe WPC, Segoe UI, sans-serif&quot;&gt;player_id&lt;/font&gt;&lt;/span&gt;&lt;/div&gt;" style="text;strokeColor=none;fillColor=none;align=left;verticalAlign=middle;spacingLeft=4;spacingRight=4;overflow=hidden;points=[[0,0.5],[1,0.5]];portConstraint=eastwest;rotatable=0;whiteSpace=wrap;html=1;" vertex="1" parent="qqcUrbFprioC642Xm6ZQ-98">
          <mxGeometry y="30" width="178.06" height="30" as="geometry" />
        </mxCell>
        <mxCell id="qqcUrbFprioC642Xm6ZQ-101" value="&lt;div style=&quot;text-align: right;&quot;&gt;&lt;span style=&quot;background-color: transparent; color: light-dark(rgb(0, 0, 0), rgb(255, 255, 255)); font-size: 14px;&quot;&gt;&lt;font face=&quot;Segoe WPC, Segoe UI, sans-serif&quot;&gt;player_name&lt;/font&gt;&lt;/span&gt;&lt;/div&gt;" style="text;strokeColor=none;fillColor=none;align=left;verticalAlign=middle;spacingLeft=4;spacingRight=4;overflow=hidden;points=[[0,0.5],[1,0.5]];portConstraint=eastwest;rotatable=0;whiteSpace=wrap;html=1;" vertex="1" parent="qqcUrbFprioC642Xm6ZQ-98">
          <mxGeometry y="60" width="178.06" height="40" as="geometry" />
        </mxCell>
        <mxCell id="qqcUrbFprioC642Xm6ZQ-99" value="&lt;div style=&quot;text-align: right;&quot;&gt;&lt;font face=&quot;Segoe WPC, Segoe UI, sans-serif&quot;&gt;&lt;span style=&quot;font-size: 14px;&quot;&gt;team_id&lt;/span&gt;&lt;/font&gt;&lt;/div&gt;" style="text;strokeColor=none;fillColor=none;align=left;verticalAlign=middle;spacingLeft=4;spacingRight=4;overflow=hidden;points=[[0,0.5],[1,0.5]];portConstraint=eastwest;rotatable=0;whiteSpace=wrap;html=1;" vertex="1" parent="qqcUrbFprioC642Xm6ZQ-98">
          <mxGeometry y="100" width="178.06" height="30" as="geometry" />
        </mxCell>
        <mxCell id="qqcUrbFprioC642Xm6ZQ-102" value="&lt;div style=&quot;text-align: right;&quot;&gt;&lt;font face=&quot;Segoe WPC, Segoe UI, sans-serif&quot;&gt;&lt;span style=&quot;font-size: 14px;&quot;&gt;player_country&lt;/span&gt;&lt;/font&gt;&lt;/div&gt;" style="text;strokeColor=none;fillColor=none;align=left;verticalAlign=middle;spacingLeft=4;spacingRight=4;overflow=hidden;points=[[0,0.5],[1,0.5]];portConstraint=eastwest;rotatable=0;whiteSpace=wrap;html=1;" vertex="1" parent="qqcUrbFprioC642Xm6ZQ-98">
          <mxGeometry y="130" width="178.06" height="30" as="geometry" />
        </mxCell>
        <mxCell id="qqcUrbFprioC642Xm6ZQ-103" value="&lt;div style=&quot;text-align: right;&quot;&gt;&lt;font face=&quot;Segoe WPC, Segoe UI, sans-serif&quot;&gt;&lt;span style=&quot;font-size: 14px;&quot;&gt;player_faceit_url&lt;/span&gt;&lt;/font&gt;&lt;/div&gt;" style="text;strokeColor=none;fillColor=none;align=left;verticalAlign=middle;spacingLeft=4;spacingRight=4;overflow=hidden;points=[[0,0.5],[1,0.5]];portConstraint=eastwest;rotatable=0;whiteSpace=wrap;html=1;" vertex="1" parent="qqcUrbFprioC642Xm6ZQ-98">
          <mxGeometry y="160" width="178.06" height="30" as="geometry" />
        </mxCell>
        <mxCell id="qqcUrbFprioC642Xm6ZQ-104" value="&lt;div&gt;dim_series&lt;/div&gt;" style="swimlane;fontStyle=0;childLayout=stackLayout;horizontal=1;startSize=30;horizontalStack=0;resizeParent=1;resizeParentMax=0;resizeLast=0;collapsible=1;marginBottom=0;whiteSpace=wrap;html=1;" vertex="1" parent="1">
          <mxGeometry x="450" y="20" width="178.06" height="210" as="geometry" />
        </mxCell>
        <mxCell id="qqcUrbFprioC642Xm6ZQ-105" value="&lt;div style=&quot;text-align: right;&quot;&gt;&lt;font face=&quot;Segoe WPC, Segoe UI, sans-serif&quot;&gt;&lt;span style=&quot;font-size: 14px;&quot;&gt;match_id&lt;/span&gt;&lt;/font&gt;&lt;/div&gt;" style="text;strokeColor=none;fillColor=none;align=left;verticalAlign=middle;spacingLeft=4;spacingRight=4;overflow=hidden;points=[[0,0.5],[1,0.5]];portConstraint=eastwest;rotatable=0;whiteSpace=wrap;html=1;" vertex="1" parent="qqcUrbFprioC642Xm6ZQ-104">
          <mxGeometry y="30" width="178.06" height="30" as="geometry" />
        </mxCell>
        <mxCell id="qqcUrbFprioC642Xm6ZQ-106" value="&lt;div style=&quot;text-align: right;&quot;&gt;&lt;span style=&quot;background-color: transparent; color: light-dark(rgb(0, 0, 0), rgb(255, 255, 255)); font-size: 14px;&quot;&gt;&lt;font face=&quot;Segoe WPC, Segoe UI, sans-serif&quot;&gt;competition_id&lt;/font&gt;&lt;/span&gt;&lt;/div&gt;" style="text;strokeColor=none;fillColor=none;align=left;verticalAlign=middle;spacingLeft=4;spacingRight=4;overflow=hidden;points=[[0,0.5],[1,0.5]];portConstraint=eastwest;rotatable=0;whiteSpace=wrap;html=1;" vertex="1" parent="qqcUrbFprioC642Xm6ZQ-104">
          <mxGeometry y="60" width="178.06" height="30" as="geometry" />
        </mxCell>
        <mxCell id="qqcUrbFprioC642Xm6ZQ-107" value="&lt;div style=&quot;text-align: right;&quot;&gt;&lt;span style=&quot;background-color: transparent; color: light-dark(rgb(0, 0, 0), rgb(255, 255, 255)); font-size: 14px;&quot;&gt;&lt;font face=&quot;Segoe WPC, Segoe UI, sans-serif&quot;&gt;faction_1_id&lt;/font&gt;&lt;/span&gt;&lt;/div&gt;" style="text;strokeColor=none;fillColor=none;align=left;verticalAlign=middle;spacingLeft=4;spacingRight=4;overflow=hidden;points=[[0,0.5],[1,0.5]];portConstraint=eastwest;rotatable=0;whiteSpace=wrap;html=1;" vertex="1" parent="qqcUrbFprioC642Xm6ZQ-104">
          <mxGeometry y="90" width="178.06" height="40" as="geometry" />
        </mxCell>
        <mxCell id="qqcUrbFprioC642Xm6ZQ-108" value="&lt;div style=&quot;text-align: right;&quot;&gt;&lt;span style=&quot;background-color: transparent; color: light-dark(rgb(0, 0, 0), rgb(255, 255, 255)); font-size: 14px;&quot;&gt;&lt;font face=&quot;Segoe WPC, Segoe UI, sans-serif&quot;&gt;faction_2_id&lt;/font&gt;&lt;/span&gt;&lt;/div&gt;" style="text;strokeColor=none;fillColor=none;align=left;verticalAlign=middle;spacingLeft=4;spacingRight=4;overflow=hidden;points=[[0,0.5],[1,0.5]];portConstraint=eastwest;rotatable=0;whiteSpace=wrap;html=1;" vertex="1" parent="qqcUrbFprioC642Xm6ZQ-104">
          <mxGeometry y="130" width="178.06" height="40" as="geometry" />
        </mxCell>
        <mxCell id="qqcUrbFprioC642Xm6ZQ-109" value="&lt;div style=&quot;text-align: right;&quot;&gt;&lt;span style=&quot;background-color: transparent; color: light-dark(rgb(0, 0, 0), rgb(255, 255, 255)); font-size: 14px;&quot;&gt;&lt;font face=&quot;Segoe WPC, Segoe UI, sans-serif&quot;&gt;best_of&lt;/font&gt;&lt;/span&gt;&lt;/div&gt;" style="text;strokeColor=none;fillColor=none;align=left;verticalAlign=middle;spacingLeft=4;spacingRight=4;overflow=hidden;points=[[0,0.5],[1,0.5]];portConstraint=eastwest;rotatable=0;whiteSpace=wrap;html=1;" vertex="1" parent="qqcUrbFprioC642Xm6ZQ-104">
          <mxGeometry y="170" width="178.06" height="40" as="geometry" />
        </mxCell>
        <mxCell id="qqcUrbFprioC642Xm6ZQ-110" value="&lt;div&gt;fact_matches&lt;/div&gt;" style="swimlane;fontStyle=0;childLayout=stackLayout;horizontal=1;startSize=30;horizontalStack=0;resizeParent=1;resizeParentMax=0;resizeLast=0;collapsible=1;marginBottom=0;whiteSpace=wrap;html=1;" vertex="1" parent="1">
          <mxGeometry x="30" y="380" width="178.06" height="260" as="geometry" />
        </mxCell>
        <mxCell id="qqcUrbFprioC642Xm6ZQ-112" value="&lt;div style=&quot;text-align: right;&quot;&gt;&lt;font face=&quot;Segoe WPC, Segoe UI, sans-serif&quot;&gt;&lt;span style=&quot;font-size: 14px;&quot;&gt;match_round_id&lt;/span&gt;&lt;/font&gt;&lt;/div&gt;" style="text;strokeColor=none;fillColor=none;align=left;verticalAlign=middle;spacingLeft=4;spacingRight=4;overflow=hidden;points=[[0,0.5],[1,0.5]];portConstraint=eastwest;rotatable=0;whiteSpace=wrap;html=1;" vertex="1" parent="qqcUrbFprioC642Xm6ZQ-110">
          <mxGeometry y="30" width="178.06" height="30" as="geometry" />
        </mxCell>
        <mxCell id="qqcUrbFprioC642Xm6ZQ-113" value="&lt;div style=&quot;text-align: right;&quot;&gt;&lt;span style=&quot;background-color: transparent; color: light-dark(rgb(0, 0, 0), rgb(255, 255, 255)); font-size: 14px;&quot;&gt;&lt;font face=&quot;Segoe WPC, Segoe UI, sans-serif&quot;&gt;match_id&lt;/font&gt;&lt;/span&gt;&lt;/div&gt;" style="text;strokeColor=none;fillColor=none;align=left;verticalAlign=middle;spacingLeft=4;spacingRight=4;overflow=hidden;points=[[0,0.5],[1,0.5]];portConstraint=eastwest;rotatable=0;whiteSpace=wrap;html=1;" vertex="1" parent="qqcUrbFprioC642Xm6ZQ-110">
          <mxGeometry y="60" width="178.06" height="40" as="geometry" />
        </mxCell>
        <mxCell id="qqcUrbFprioC642Xm6ZQ-120" value="&lt;div style=&quot;text-align: right;&quot;&gt;&lt;span style=&quot;background-color: transparent; color: light-dark(rgb(0, 0, 0), rgb(255, 255, 255)); font-size: 14px;&quot;&gt;&lt;font face=&quot;Segoe WPC, Segoe UI, sans-serif&quot;&gt;match_round&lt;/font&gt;&lt;/span&gt;&lt;/div&gt;" style="text;strokeColor=none;fillColor=none;align=left;verticalAlign=middle;spacingLeft=4;spacingRight=4;overflow=hidden;points=[[0,0.5],[1,0.5]];portConstraint=eastwest;rotatable=0;whiteSpace=wrap;html=1;" vertex="1" parent="qqcUrbFprioC642Xm6ZQ-110">
          <mxGeometry y="100" width="178.06" height="40" as="geometry" />
        </mxCell>
        <mxCell id="qqcUrbFprioC642Xm6ZQ-121" value="&lt;div style=&quot;text-align: right;&quot;&gt;winner_id&lt;/div&gt;" style="text;strokeColor=none;fillColor=none;align=left;verticalAlign=middle;spacingLeft=4;spacingRight=4;overflow=hidden;points=[[0,0.5],[1,0.5]];portConstraint=eastwest;rotatable=0;whiteSpace=wrap;html=1;" vertex="1" parent="qqcUrbFprioC642Xm6ZQ-110">
          <mxGeometry y="140" width="178.06" height="40" as="geometry" />
        </mxCell>
        <mxCell id="qqcUrbFprioC642Xm6ZQ-125" value="&lt;div style=&quot;text-align: right;&quot;&gt;Score&lt;/div&gt;" style="text;strokeColor=none;fillColor=none;align=left;verticalAlign=middle;spacingLeft=4;spacingRight=4;overflow=hidden;points=[[0,0.5],[1,0.5]];portConstraint=eastwest;rotatable=0;whiteSpace=wrap;html=1;" vertex="1" parent="qqcUrbFprioC642Xm6ZQ-110">
          <mxGeometry y="180" width="178.06" height="40" as="geometry" />
        </mxCell>
        <mxCell id="qqcUrbFprioC642Xm6ZQ-126" value="&lt;div style=&quot;text-align: right;&quot;&gt;total_rounds_played&lt;/div&gt;" style="text;strokeColor=none;fillColor=none;align=left;verticalAlign=middle;spacingLeft=4;spacingRight=4;overflow=hidden;points=[[0,0.5],[1,0.5]];portConstraint=eastwest;rotatable=0;whiteSpace=wrap;html=1;" vertex="1" parent="qqcUrbFprioC642Xm6ZQ-110">
          <mxGeometry y="220" width="178.06" height="40" as="geometry" />
        </mxCell>
        <mxCell id="qqcUrbFprioC642Xm6ZQ-116" value="&lt;div&gt;fact_stats&lt;/div&gt;" style="swimlane;fontStyle=0;childLayout=stackLayout;horizontal=1;startSize=30;horizontalStack=0;resizeParent=1;resizeParentMax=0;resizeLast=0;collapsible=1;marginBottom=0;whiteSpace=wrap;html=1;" vertex="1" parent="1">
          <mxGeometry x="300" y="400" width="178.06" height="130" as="geometry" />
        </mxCell>
        <mxCell id="qqcUrbFprioC642Xm6ZQ-117" value="&lt;div style=&quot;text-align: right;&quot;&gt;&lt;font face=&quot;Segoe WPC, Segoe UI, sans-serif&quot;&gt;&lt;span style=&quot;font-size: 14px;&quot;&gt;match_id&lt;/span&gt;&lt;/font&gt;&lt;/div&gt;" style="text;strokeColor=none;fillColor=none;align=left;verticalAlign=middle;spacingLeft=4;spacingRight=4;overflow=hidden;points=[[0,0.5],[1,0.5]];portConstraint=eastwest;rotatable=0;whiteSpace=wrap;html=1;" vertex="1" parent="qqcUrbFprioC642Xm6ZQ-116">
          <mxGeometry y="30" width="178.06" height="30" as="geometry" />
        </mxCell>
        <mxCell id="qqcUrbFprioC642Xm6ZQ-118" value="&lt;div style=&quot;text-align: right;&quot;&gt;&lt;span style=&quot;background-color: transparent; color: light-dark(rgb(0, 0, 0), rgb(255, 255, 255)); font-size: 14px;&quot;&gt;&lt;font face=&quot;Segoe WPC, Segoe UI, sans-serif&quot;&gt;series_id&lt;/font&gt;&lt;/span&gt;&lt;/div&gt;" style="text;strokeColor=none;fillColor=none;align=left;verticalAlign=middle;spacingLeft=4;spacingRight=4;overflow=hidden;points=[[0,0.5],[1,0.5]];portConstraint=eastwest;rotatable=0;whiteSpace=wrap;html=1;" vertex="1" parent="qqcUrbFprioC642Xm6ZQ-116">
          <mxGeometry y="60" width="178.06" height="30" as="geometry" />
        </mxCell>
        <mxCell id="qqcUrbFprioC642Xm6ZQ-119" value="&lt;div style=&quot;text-align: right;&quot;&gt;&lt;span style=&quot;background-color: transparent; color: light-dark(rgb(0, 0, 0), rgb(255, 255, 255)); font-size: 14px;&quot;&gt;&lt;font face=&quot;Segoe WPC, Segoe UI, sans-serif&quot;&gt;match_round&lt;/font&gt;&lt;/span&gt;&lt;/div&gt;" style="text;strokeColor=none;fillColor=none;align=left;verticalAlign=middle;spacingLeft=4;spacingRight=4;overflow=hidden;points=[[0,0.5],[1,0.5]];portConstraint=eastwest;rotatable=0;whiteSpace=wrap;html=1;" vertex="1" parent="qqcUrbFprioC642Xm6ZQ-116">
          <mxGeometry y="90" width="178.06" height="40" as="geometry" />
        </mxCell>
        <mxCell id="qqcUrbFprioC642Xm6ZQ-123" value="API query logic :&amp;nbsp;&lt;div&gt;&lt;br&gt;&lt;/div&gt;&lt;div&gt;Championship Query : only used to retrieve list of matches_id played in each championships&lt;br&gt;&lt;br&gt;Match Stats Query : used to iterate over each matches_id to gather data around two main pillars :&amp;nbsp;&lt;/div&gt;&lt;div&gt;&lt;br&gt;&lt;/div&gt;&lt;div&gt;&lt;ul&gt;&lt;li&gt;match details : format (bo1,bo3), map, rounds played, scoreline&lt;/li&gt;&lt;li&gt;team details&amp;nbsp; : winner (bool), rounds won, rounds lost for each teams&lt;/li&gt;&lt;li&gt;players detail : kills, deaths, assists and so on for each players&lt;/li&gt;&lt;/ul&gt;&lt;/div&gt;&lt;div&gt;&lt;br&gt;&lt;/div&gt;&lt;div&gt;Team Details Query : used to enrich dim tables Teams and Players with data such as :&amp;nbsp;&lt;/div&gt;&lt;div&gt;&lt;ul&gt;&lt;li&gt;Teams : team_name,team_avatar,team_faceit_url&lt;/li&gt;&lt;li&gt;Players : player_name, player_avatar,player_country, player_faceit_url&lt;/li&gt;&lt;/ul&gt;&lt;/div&gt;" style="rounded=0;whiteSpace=wrap;html=1;align=left;" vertex="1" parent="1">
          <mxGeometry x="5" y="930" width="820" height="239" as="geometry" />
        </mxCell>
        <mxCell id="qqcUrbFprioC642Xm6ZQ-124" value="&lt;ul&gt;&lt;li&gt;&lt;span style=&quot;background-color: transparent; color: light-dark(rgb(0, 0, 0), rgb(255, 255, 255));&quot;&gt;Match_id -&amp;gt; non unique id&amp;nbsp; determine each match played but a match can contain up to 5 rounds (maps)&lt;/span&gt;&lt;/li&gt;&lt;li&gt;&lt;span style=&quot;background-color: transparent; color: light-dark(rgb(0, 0, 0), rgb(255, 255, 255));&quot;&gt;Match_round -&amp;gt; non unique id, determine each map played within a match, its incremental (1,2,3,4 and max 5)&lt;/span&gt;&lt;/li&gt;&lt;/ul&gt;&lt;div&gt;the combination of those two id make a composite primary key (unique)&lt;/div&gt;" style="rounded=0;whiteSpace=wrap;html=1;align=left;" vertex="1" parent="1">
          <mxGeometry x="20" y="700" width="720" height="180" as="geometry" />
        </mxCell>
      </root>
    </mxGraphModel>
  </diagram>
</mxfile>
